G04 #@! TF.FileFunction,Soldermask,Bot*
%FSLAX46Y46*%
G04 Gerber Fmt 4.6, Leading zero omitted, Abs format (unit mm)*
G04 Created by KiCad (PCBNEW (after 2015-mar-04 BZR unknown)-product) date 5/4/2015 11:29:17 AM*
%MOMM*%
G01*
G04 APERTURE LIST*
%ADD10C,0.101600*%
%ADD11C,5.080000*%
%ADD12C,2.286000*%
%ADD13C,2.159000*%
%ADD14C,1.778000*%
%ADD15C,3.175000*%
%ADD16C,1.651000*%
%ADD17C,1.524000*%
%ADD18C,2.921000*%
G04 APERTURE END LIST*
D10*
D11*
X66040000Y-29210000D03*
X29210000Y-29210000D03*
X58420000Y-115570000D03*
D12*
X29210000Y-69850000D03*
D11*
X29210000Y-115570000D03*
D12*
X29210000Y-74930000D03*
D13*
X42418000Y-34544000D03*
X42418000Y-44069000D03*
X42291000Y-50165000D03*
X42291000Y-59690000D03*
D14*
X47498000Y-36830000D03*
X55626000Y-36830000D03*
X47498000Y-40005000D03*
X55626000Y-40005000D03*
X55626000Y-43180000D03*
X47498000Y-43180000D03*
X55626000Y-46355000D03*
X47498000Y-46355000D03*
X55626000Y-49657000D03*
X47498000Y-49657000D03*
D15*
X77470000Y-38100000D03*
D16*
X72390000Y-33020000D03*
X72390000Y-30480000D03*
D15*
X77470000Y-27940000D03*
X77470000Y-57150000D03*
D16*
X72390000Y-52070000D03*
X72390000Y-49530000D03*
D15*
X77470000Y-46990000D03*
X77470000Y-76200000D03*
D16*
X72390000Y-71120000D03*
X72390000Y-68580000D03*
D15*
X77470000Y-66040000D03*
D17*
X49403000Y-68580000D03*
X51943000Y-68580000D03*
X54483000Y-68580000D03*
X57023000Y-68580000D03*
X59563000Y-68580000D03*
X62103000Y-68580000D03*
X64643000Y-68580000D03*
X67183000Y-68580000D03*
D12*
X47625000Y-98552000D03*
X52705000Y-98552000D03*
X57785000Y-98552000D03*
D18*
X81534000Y-88392000D03*
X66294000Y-88392000D03*
X81534000Y-101092000D03*
X66294000Y-101092000D03*
X81534000Y-113792000D03*
X66294000Y-113792000D03*
M02*
