M48
;DRILL file {kicad (after 2015-mar-04 BZR unknown)-product} date 5/4/2015 11:29:42 AM
;FORMAT={-:-/ absolute / inch / decimal}
FMAT,2
INCH,TZ
T1C0.020
T2C0.030
T3C0.035
T4C0.036
T5C0.043
T6C0.050
T7C0.065
T8C0.080
T9C0.120
%
G90
G05
M72
T1
X2.105Y-3.125
X2.105Y-3.375
X2.245Y-2.96
X2.41Y-3.345
X2.41Y-3.57
X2.545Y-2.96
X2.77Y-3.075
T2
X1.945Y-2.7
X2.045Y-2.7
X2.145Y-2.7
X2.245Y-2.7
X2.345Y-2.7
X2.445Y-2.7
X2.545Y-2.7
X2.645Y-2.7
T3
X2.85Y-1.2
X2.85Y-1.3
X2.85Y-1.95
X2.85Y-2.05
X2.85Y-2.7
X2.85Y-2.8
T4
X1.87Y-1.45
X1.87Y-1.575
X1.87Y-1.7
X1.87Y-1.825
X1.87Y-1.955
X2.19Y-1.45
X2.19Y-1.575
X2.19Y-1.7
X2.19Y-1.825
X2.19Y-1.955
T5
X1.665Y-1.975
X1.665Y-2.35
X1.67Y-1.36
X1.67Y-1.735
T6
X1.15Y-2.75
X1.15Y-2.95
X1.875Y-3.88
X2.075Y-3.88
X2.275Y-3.88
T7
X2.61Y-3.48
X2.61Y-3.98
X2.61Y-4.48
X3.21Y-3.48
X3.21Y-3.98
X3.21Y-4.48
T8
X3.05Y-1.1
X3.05Y-1.5
X3.05Y-1.85
X3.05Y-2.25
X3.05Y-2.6
X3.05Y-3.
T9
X1.15Y-1.15
X1.15Y-4.55
X2.3Y-4.55
X2.6Y-1.15
T0
M30
